<mxfile host="app.diagrams.net" agent="Mozilla/5.0 (Windows NT 10.0; Win64; x64) AppleWebKit/537.36 (KHTML, like Gecko) Chrome/135.0.0.0 Safari/537.36" version="26.2.14">
  <diagram name="Page-1" id="JHkMMfTYENx-ZfjOI_LQ">
    <mxGraphModel dx="651" dy="329" grid="1" gridSize="10" guides="1" tooltips="1" connect="1" arrows="1" fold="1" page="1" pageScale="1" pageWidth="827" pageHeight="1169" math="0" shadow="0">
      <root>
        <mxCell id="0" />
        <mxCell id="1" parent="0" />
        <mxCell id="4P7MWwu41EraKO95r6xE-1" value="" style="rounded=0;whiteSpace=wrap;html=1;" vertex="1" parent="1">
          <mxGeometry x="70" y="70" width="30" height="90" as="geometry" />
        </mxCell>
        <mxCell id="4P7MWwu41EraKO95r6xE-3" value="Stack A" style="text;html=1;align=center;verticalAlign=middle;whiteSpace=wrap;rounded=0;" vertex="1" parent="1">
          <mxGeometry x="60" y="40" width="60" height="30" as="geometry" />
        </mxCell>
        <mxCell id="4P7MWwu41EraKO95r6xE-4" value="Stack B" style="text;html=1;align=center;verticalAlign=middle;whiteSpace=wrap;rounded=0;" vertex="1" parent="1">
          <mxGeometry x="120" y="39" width="60" height="30" as="geometry" />
        </mxCell>
        <mxCell id="4P7MWwu41EraKO95r6xE-9" value="3&lt;div&gt;2&lt;/div&gt;&lt;div&gt;5&lt;/div&gt;&lt;div&gt;1&lt;/div&gt;&lt;div&gt;4&lt;/div&gt;&lt;div&gt;&lt;br&gt;&lt;/div&gt;" style="text;html=1;align=center;verticalAlign=middle;whiteSpace=wrap;rounded=0;" vertex="1" parent="1">
          <mxGeometry x="71" y="82" width="30" height="76" as="geometry" />
        </mxCell>
        <mxCell id="4P7MWwu41EraKO95r6xE-11" value="" style="rounded=0;whiteSpace=wrap;html=1;" vertex="1" parent="1">
          <mxGeometry x="131" y="70" width="30" height="90" as="geometry" />
        </mxCell>
        <mxCell id="4P7MWwu41EraKO95r6xE-12" value="" style="shape=flexArrow;endArrow=classic;html=1;rounded=0;" edge="1" parent="1">
          <mxGeometry width="50" height="50" relative="1" as="geometry">
            <mxPoint x="168" y="114.5" as="sourcePoint" />
            <mxPoint x="205" y="115" as="targetPoint" />
          </mxGeometry>
        </mxCell>
        <mxCell id="4P7MWwu41EraKO95r6xE-13" value="pb" style="text;html=1;align=center;verticalAlign=middle;whiteSpace=wrap;rounded=0;rotation=30;" vertex="1" parent="1">
          <mxGeometry x="90" y="70" width="60" height="30" as="geometry" />
        </mxCell>
        <mxCell id="4P7MWwu41EraKO95r6xE-22" value="" style="rounded=0;whiteSpace=wrap;html=1;" vertex="1" parent="1">
          <mxGeometry x="212" y="71" width="30" height="90" as="geometry" />
        </mxCell>
        <mxCell id="4P7MWwu41EraKO95r6xE-23" value="Stack A" style="text;html=1;align=center;verticalAlign=middle;whiteSpace=wrap;rounded=0;" vertex="1" parent="1">
          <mxGeometry x="203" y="41" width="60" height="30" as="geometry" />
        </mxCell>
        <mxCell id="4P7MWwu41EraKO95r6xE-24" value="Stack B" style="text;html=1;align=center;verticalAlign=middle;whiteSpace=wrap;rounded=0;" vertex="1" parent="1">
          <mxGeometry x="263" y="40" width="60" height="30" as="geometry" />
        </mxCell>
        <mxCell id="4P7MWwu41EraKO95r6xE-25" value="&lt;span style=&quot;background-color: transparent; color: light-dark(rgb(0, 0, 0), rgb(255, 255, 255));&quot;&gt;2&lt;/span&gt;&lt;div&gt;5&lt;/div&gt;&lt;div&gt;1&lt;/div&gt;&lt;div&gt;4&lt;/div&gt;&lt;div&gt;&lt;br&gt;&lt;/div&gt;" style="text;html=1;align=center;verticalAlign=middle;whiteSpace=wrap;rounded=0;" vertex="1" parent="1">
          <mxGeometry x="212" y="83" width="30" height="76" as="geometry" />
        </mxCell>
        <mxCell id="4P7MWwu41EraKO95r6xE-26" value="" style="rounded=0;whiteSpace=wrap;html=1;" vertex="1" parent="1">
          <mxGeometry x="273" y="71" width="30" height="90" as="geometry" />
        </mxCell>
        <mxCell id="4P7MWwu41EraKO95r6xE-29" value="3" style="text;html=1;align=center;verticalAlign=middle;whiteSpace=wrap;rounded=0;" vertex="1" parent="1">
          <mxGeometry x="278" y="101" width="20" height="30" as="geometry" />
        </mxCell>
        <mxCell id="4P7MWwu41EraKO95r6xE-30" value="" style="endArrow=classic;html=1;rounded=0;" edge="1" parent="1">
          <mxGeometry width="50" height="50" relative="1" as="geometry">
            <mxPoint x="95" y="85" as="sourcePoint" />
            <mxPoint x="150" y="110" as="targetPoint" />
          </mxGeometry>
        </mxCell>
        <mxCell id="4P7MWwu41EraKO95r6xE-38" value="" style="endArrow=classic;html=1;rounded=0;entryX=1;entryY=0.75;entryDx=0;entryDy=0;" edge="1" parent="1" target="4P7MWwu41EraKO95r6xE-39">
          <mxGeometry width="50" height="50" relative="1" as="geometry">
            <mxPoint x="237" y="95" as="sourcePoint" />
            <mxPoint x="294.19999999999993" y="104.20999999999998" as="targetPoint" />
          </mxGeometry>
        </mxCell>
        <mxCell id="4P7MWwu41EraKO95r6xE-39" value="pb" style="text;html=1;align=center;verticalAlign=middle;whiteSpace=wrap;rounded=0;rotation=15;" vertex="1" parent="1">
          <mxGeometry x="230" y="72" width="60" height="30" as="geometry" />
        </mxCell>
        <mxCell id="4P7MWwu41EraKO95r6xE-55" value="" style="rounded=0;whiteSpace=wrap;html=1;" vertex="1" parent="1">
          <mxGeometry x="354" y="72" width="30" height="90" as="geometry" />
        </mxCell>
        <mxCell id="4P7MWwu41EraKO95r6xE-56" value="Stack A" style="text;html=1;align=center;verticalAlign=middle;whiteSpace=wrap;rounded=0;" vertex="1" parent="1">
          <mxGeometry x="345" y="42" width="60" height="30" as="geometry" />
        </mxCell>
        <mxCell id="4P7MWwu41EraKO95r6xE-57" value="Stack B" style="text;html=1;align=center;verticalAlign=middle;whiteSpace=wrap;rounded=0;" vertex="1" parent="1">
          <mxGeometry x="403" y="41" width="60" height="30" as="geometry" />
        </mxCell>
        <mxCell id="4P7MWwu41EraKO95r6xE-58" value="&lt;span style=&quot;background-color: transparent; color: light-dark(rgb(0, 0, 0), rgb(255, 255, 255));&quot;&gt;5&lt;/span&gt;&lt;div&gt;1&lt;/div&gt;&lt;div&gt;4&lt;/div&gt;&lt;div&gt;&lt;br&gt;&lt;/div&gt;" style="text;html=1;align=center;verticalAlign=middle;whiteSpace=wrap;rounded=0;" vertex="1" parent="1">
          <mxGeometry x="355" y="84" width="30" height="76" as="geometry" />
        </mxCell>
        <mxCell id="4P7MWwu41EraKO95r6xE-59" value="" style="rounded=0;whiteSpace=wrap;html=1;" vertex="1" parent="1">
          <mxGeometry x="413" y="72" width="30" height="90" as="geometry" />
        </mxCell>
        <mxCell id="4P7MWwu41EraKO95r6xE-61" value="2&lt;div&gt;3&lt;/div&gt;" style="text;html=1;align=center;verticalAlign=middle;whiteSpace=wrap;rounded=0;" vertex="1" parent="1">
          <mxGeometry x="418" y="102" width="20" height="30" as="geometry" />
        </mxCell>
        <mxCell id="4P7MWwu41EraKO95r6xE-74" value="" style="curved=1;endArrow=classic;html=1;rounded=0;" edge="1" parent="1">
          <mxGeometry width="50" height="50" relative="1" as="geometry">
            <mxPoint x="375" y="101" as="sourcePoint" />
            <mxPoint x="375" y="141" as="targetPoint" />
            <Array as="points">
              <mxPoint x="400" y="121" />
            </Array>
          </mxGeometry>
        </mxCell>
        <mxCell id="4P7MWwu41EraKO95r6xE-75" value="ra" style="text;html=1;align=center;verticalAlign=middle;whiteSpace=wrap;rounded=0;" vertex="1" parent="1">
          <mxGeometry x="369" y="105" width="60" height="30" as="geometry" />
        </mxCell>
        <mxCell id="4P7MWwu41EraKO95r6xE-76" value="" style="rounded=0;whiteSpace=wrap;html=1;" vertex="1" parent="1">
          <mxGeometry x="495" y="73" width="30" height="90" as="geometry" />
        </mxCell>
        <mxCell id="4P7MWwu41EraKO95r6xE-77" value="Stack A" style="text;html=1;align=center;verticalAlign=middle;whiteSpace=wrap;rounded=0;" vertex="1" parent="1">
          <mxGeometry x="486" y="43" width="60" height="30" as="geometry" />
        </mxCell>
        <mxCell id="4P7MWwu41EraKO95r6xE-78" value="Stack B" style="text;html=1;align=center;verticalAlign=middle;whiteSpace=wrap;rounded=0;" vertex="1" parent="1">
          <mxGeometry x="543" y="42" width="60" height="30" as="geometry" />
        </mxCell>
        <mxCell id="4P7MWwu41EraKO95r6xE-79" value="&lt;span style=&quot;background-color: transparent; color: light-dark(rgb(0, 0, 0), rgb(255, 255, 255));&quot;&gt;1&lt;/span&gt;&lt;div data-l-s=&quot;14385&quot;&gt;4&lt;/div&gt;&lt;div&gt;5&lt;/div&gt;" style="text;html=1;align=center;verticalAlign=middle;whiteSpace=wrap;rounded=0;" vertex="1" parent="1">
          <mxGeometry x="496" y="78" width="30" height="76" as="geometry" />
        </mxCell>
        <mxCell id="4P7MWwu41EraKO95r6xE-80" value="" style="rounded=0;whiteSpace=wrap;html=1;" vertex="1" parent="1">
          <mxGeometry x="553" y="73" width="30" height="90" as="geometry" />
        </mxCell>
        <mxCell id="4P7MWwu41EraKO95r6xE-81" value="" style="shape=flexArrow;endArrow=classic;html=1;rounded=0;" edge="1" parent="1">
          <mxGeometry width="50" height="50" relative="1" as="geometry">
            <mxPoint x="649.5" y="378" as="sourcePoint" />
            <mxPoint x="650.5" y="418" as="targetPoint" />
          </mxGeometry>
        </mxCell>
        <mxCell id="4P7MWwu41EraKO95r6xE-82" value="2&lt;div&gt;3&lt;/div&gt;" style="text;html=1;align=center;verticalAlign=middle;whiteSpace=wrap;rounded=0;" vertex="1" parent="1">
          <mxGeometry x="558" y="103" width="20" height="30" as="geometry" />
        </mxCell>
        <mxCell id="4P7MWwu41EraKO95r6xE-83" value="" style="curved=1;endArrow=classic;html=1;rounded=0;" edge="1" parent="1">
          <mxGeometry width="50" height="50" relative="1" as="geometry">
            <mxPoint x="516" y="102" as="sourcePoint" />
            <mxPoint x="516" y="142" as="targetPoint" />
            <Array as="points">
              <mxPoint x="540" y="120" />
            </Array>
          </mxGeometry>
        </mxCell>
        <mxCell id="4P7MWwu41EraKO95r6xE-84" value="ra" style="text;html=1;align=center;verticalAlign=middle;whiteSpace=wrap;rounded=0;" vertex="1" parent="1">
          <mxGeometry x="509" y="106" width="60" height="30" as="geometry" />
        </mxCell>
        <mxCell id="4P7MWwu41EraKO95r6xE-85" value="" style="rounded=0;whiteSpace=wrap;html=1;" vertex="1" parent="1">
          <mxGeometry x="634" y="74" width="30" height="90" as="geometry" />
        </mxCell>
        <mxCell id="4P7MWwu41EraKO95r6xE-86" value="Stack A" style="text;html=1;align=center;verticalAlign=middle;whiteSpace=wrap;rounded=0;" vertex="1" parent="1">
          <mxGeometry x="625" y="44" width="60" height="30" as="geometry" />
        </mxCell>
        <mxCell id="4P7MWwu41EraKO95r6xE-87" value="Stack B" style="text;html=1;align=center;verticalAlign=middle;whiteSpace=wrap;rounded=0;" vertex="1" parent="1">
          <mxGeometry x="683" y="43" width="60" height="30" as="geometry" />
        </mxCell>
        <mxCell id="4P7MWwu41EraKO95r6xE-88" value="4&lt;div&gt;5&lt;/div&gt;&lt;div&gt;1&lt;br&gt;&lt;div&gt;&lt;br&gt;&lt;/div&gt;&lt;/div&gt;" style="text;html=1;align=center;verticalAlign=middle;whiteSpace=wrap;rounded=0;" vertex="1" parent="1">
          <mxGeometry x="635" y="86" width="30" height="76" as="geometry" />
        </mxCell>
        <mxCell id="4P7MWwu41EraKO95r6xE-89" value="" style="rounded=0;whiteSpace=wrap;html=1;" vertex="1" parent="1">
          <mxGeometry x="695" y="74" width="30" height="90" as="geometry" />
        </mxCell>
        <mxCell id="4P7MWwu41EraKO95r6xE-91" value="2&lt;div&gt;3&lt;/div&gt;" style="text;html=1;align=center;verticalAlign=middle;whiteSpace=wrap;rounded=0;" vertex="1" parent="1">
          <mxGeometry x="700" y="104" width="20" height="30" as="geometry" />
        </mxCell>
        <mxCell id="4P7MWwu41EraKO95r6xE-94" value="" style="endArrow=classic;html=1;rounded=0;exitX=0.103;exitY=0.158;exitDx=0;exitDy=0;exitPerimeter=0;" edge="1" parent="1" source="4P7MWwu41EraKO95r6xE-91">
          <mxGeometry width="50" height="50" relative="1" as="geometry">
            <mxPoint x="713" y="112" as="sourcePoint" />
            <mxPoint x="651" y="91" as="targetPoint" />
          </mxGeometry>
        </mxCell>
        <mxCell id="4P7MWwu41EraKO95r6xE-95" value="pa" style="text;html=1;align=center;verticalAlign=middle;whiteSpace=wrap;rounded=0;rotation=15;" vertex="1" parent="1">
          <mxGeometry x="651" y="74" width="60" height="30" as="geometry" />
        </mxCell>
        <mxCell id="4P7MWwu41EraKO95r6xE-96" value="" style="rounded=0;whiteSpace=wrap;html=1;" vertex="1" parent="1">
          <mxGeometry x="438" y="256" width="30" height="90" as="geometry" />
        </mxCell>
        <mxCell id="4P7MWwu41EraKO95r6xE-97" value="Stack A" style="text;html=1;align=center;verticalAlign=middle;whiteSpace=wrap;rounded=0;" vertex="1" parent="1">
          <mxGeometry x="429" y="226" width="60" height="30" as="geometry" />
        </mxCell>
        <mxCell id="4P7MWwu41EraKO95r6xE-98" value="Stack B" style="text;html=1;align=center;verticalAlign=middle;whiteSpace=wrap;rounded=0;" vertex="1" parent="1">
          <mxGeometry x="498" y="225" width="60" height="30" as="geometry" />
        </mxCell>
        <mxCell id="4P7MWwu41EraKO95r6xE-99" value="&lt;span style=&quot;background-color: transparent; color: light-dark(rgb(0, 0, 0), rgb(255, 255, 255));&quot;&gt;2&lt;/span&gt;&lt;div&gt;4&lt;/div&gt;&lt;div&gt;5&lt;/div&gt;&lt;div&gt;1&lt;br&gt;&lt;div&gt;&lt;br&gt;&lt;/div&gt;&lt;/div&gt;" style="text;html=1;align=center;verticalAlign=middle;whiteSpace=wrap;rounded=0;" vertex="1" parent="1">
          <mxGeometry x="439" y="268" width="30" height="76" as="geometry" />
        </mxCell>
        <mxCell id="4P7MWwu41EraKO95r6xE-100" value="" style="rounded=0;whiteSpace=wrap;html=1;" vertex="1" parent="1">
          <mxGeometry x="508" y="256" width="30" height="90" as="geometry" />
        </mxCell>
        <mxCell id="4P7MWwu41EraKO95r6xE-101" value="" style="shape=flexArrow;endArrow=classic;html=1;rounded=0;" edge="1" parent="1">
          <mxGeometry width="50" height="50" relative="1" as="geometry">
            <mxPoint x="590" y="302.75" as="sourcePoint" />
            <mxPoint x="547" y="303" as="targetPoint" />
          </mxGeometry>
        </mxCell>
        <mxCell id="4P7MWwu41EraKO95r6xE-102" value="&lt;div&gt;3&lt;/div&gt;" style="text;html=1;align=center;verticalAlign=middle;whiteSpace=wrap;rounded=0;" vertex="1" parent="1">
          <mxGeometry x="513" y="286" width="20" height="30" as="geometry" />
        </mxCell>
        <mxCell id="4P7MWwu41EraKO95r6xE-103" value="" style="curved=1;endArrow=classic;html=1;rounded=0;entryX=0.533;entryY=0.908;entryDx=0;entryDy=0;entryPerimeter=0;" edge="1" parent="1">
          <mxGeometry width="50" height="50" relative="1" as="geometry">
            <mxPoint x="461" y="276" as="sourcePoint" />
            <mxPoint x="457.9900000000001" y="334.008" as="targetPoint" />
            <Array as="points">
              <mxPoint x="497" y="296" />
            </Array>
          </mxGeometry>
        </mxCell>
        <mxCell id="4P7MWwu41EraKO95r6xE-104" value="ra" style="text;html=1;align=center;verticalAlign=middle;whiteSpace=wrap;rounded=0;" vertex="1" parent="1">
          <mxGeometry x="459" y="289" width="60" height="30" as="geometry" />
        </mxCell>
        <mxCell id="4P7MWwu41EraKO95r6xE-105" value="" style="rounded=0;whiteSpace=wrap;html=1;" vertex="1" parent="1">
          <mxGeometry x="274" y="256" width="30" height="90" as="geometry" />
        </mxCell>
        <mxCell id="4P7MWwu41EraKO95r6xE-106" value="Stack A" style="text;html=1;align=center;verticalAlign=middle;whiteSpace=wrap;rounded=0;" vertex="1" parent="1">
          <mxGeometry x="263" y="226" width="60" height="30" as="geometry" />
        </mxCell>
        <mxCell id="4P7MWwu41EraKO95r6xE-107" value="Stack B" style="text;html=1;align=center;verticalAlign=middle;whiteSpace=wrap;rounded=0;" vertex="1" parent="1">
          <mxGeometry x="334" y="225" width="60" height="30" as="geometry" />
        </mxCell>
        <mxCell id="4P7MWwu41EraKO95r6xE-108" value="&lt;div&gt;&lt;div&gt;4&lt;/div&gt;&lt;/div&gt;&lt;div&gt;5&lt;/div&gt;&lt;div&gt;1&lt;/div&gt;&lt;div&gt;2&lt;/div&gt;" style="text;html=1;align=center;verticalAlign=middle;whiteSpace=wrap;rounded=0;" vertex="1" parent="1">
          <mxGeometry x="275" y="268" width="30" height="76" as="geometry" />
        </mxCell>
        <mxCell id="4P7MWwu41EraKO95r6xE-109" value="" style="rounded=0;whiteSpace=wrap;html=1;" vertex="1" parent="1">
          <mxGeometry x="344" y="256" width="30" height="90" as="geometry" />
        </mxCell>
        <mxCell id="4P7MWwu41EraKO95r6xE-110" value="3" style="text;html=1;align=center;verticalAlign=middle;whiteSpace=wrap;rounded=0;" vertex="1" parent="1">
          <mxGeometry x="349" y="286" width="20" height="30" as="geometry" />
        </mxCell>
        <mxCell id="4P7MWwu41EraKO95r6xE-111" value="" style="endArrow=classic;html=1;rounded=0;exitX=0;exitY=0.5;exitDx=0;exitDy=0;" edge="1" parent="1" source="4P7MWwu41EraKO95r6xE-110">
          <mxGeometry width="50" height="50" relative="1" as="geometry">
            <mxPoint x="353" y="294" as="sourcePoint" />
            <mxPoint x="291" y="273" as="targetPoint" />
          </mxGeometry>
        </mxCell>
        <mxCell id="4P7MWwu41EraKO95r6xE-112" value="pa" style="text;html=1;align=center;verticalAlign=middle;whiteSpace=wrap;rounded=0;rotation=30;" vertex="1" parent="1">
          <mxGeometry x="297" y="262" width="60" height="30" as="geometry" />
        </mxCell>
        <mxCell id="4P7MWwu41EraKO95r6xE-113" value="" style="shape=flexArrow;endArrow=classic;html=1;rounded=0;" edge="1" parent="1">
          <mxGeometry width="50" height="50" relative="1" as="geometry">
            <mxPoint x="259" y="300.75" as="sourcePoint" />
            <mxPoint x="216" y="301" as="targetPoint" />
          </mxGeometry>
        </mxCell>
        <mxCell id="4P7MWwu41EraKO95r6xE-114" value="" style="shape=flexArrow;endArrow=classic;html=1;rounded=0;" edge="1" parent="1">
          <mxGeometry width="50" height="50" relative="1" as="geometry">
            <mxPoint x="428" y="297.75" as="sourcePoint" />
            <mxPoint x="385" y="298" as="targetPoint" />
          </mxGeometry>
        </mxCell>
        <mxCell id="4P7MWwu41EraKO95r6xE-115" value="" style="rounded=0;whiteSpace=wrap;html=1;" vertex="1" parent="1">
          <mxGeometry x="99" y="259" width="30" height="90" as="geometry" />
        </mxCell>
        <mxCell id="4P7MWwu41EraKO95r6xE-116" value="Stack A" style="text;html=1;align=center;verticalAlign=middle;whiteSpace=wrap;rounded=0;" vertex="1" parent="1">
          <mxGeometry x="90" y="229" width="60" height="30" as="geometry" />
        </mxCell>
        <mxCell id="4P7MWwu41EraKO95r6xE-117" value="Stack B" style="text;html=1;align=center;verticalAlign=middle;whiteSpace=wrap;rounded=0;" vertex="1" parent="1">
          <mxGeometry x="159" y="228" width="60" height="30" as="geometry" />
        </mxCell>
        <mxCell id="4P7MWwu41EraKO95r6xE-118" value="&lt;div&gt;&lt;div&gt;3&lt;/div&gt;&lt;/div&gt;&lt;div&gt;4&lt;/div&gt;&lt;div&gt;5&lt;/div&gt;&lt;div&gt;1&lt;/div&gt;&lt;div&gt;2&lt;/div&gt;" style="text;html=1;align=center;verticalAlign=middle;whiteSpace=wrap;rounded=0;" vertex="1" parent="1">
          <mxGeometry x="98" y="269" width="30" height="76" as="geometry" />
        </mxCell>
        <mxCell id="4P7MWwu41EraKO95r6xE-119" value="" style="rounded=0;whiteSpace=wrap;html=1;" vertex="1" parent="1">
          <mxGeometry x="169" y="259" width="30" height="90" as="geometry" />
        </mxCell>
        <mxCell id="4P7MWwu41EraKO95r6xE-123" value="" style="shape=flexArrow;endArrow=classic;html=1;rounded=0;" edge="1" parent="1">
          <mxGeometry width="50" height="50" relative="1" as="geometry">
            <mxPoint x="83" y="303.75" as="sourcePoint" />
            <mxPoint x="40" y="304" as="targetPoint" />
          </mxGeometry>
        </mxCell>
        <mxCell id="4P7MWwu41EraKO95r6xE-124" value="" style="curved=1;endArrow=classic;html=1;rounded=0;" edge="1" parent="1">
          <mxGeometry width="50" height="50" relative="1" as="geometry">
            <mxPoint x="120" y="337" as="sourcePoint" />
            <mxPoint x="120" y="267" as="targetPoint" />
            <Array as="points">
              <mxPoint x="144" y="297" />
            </Array>
          </mxGeometry>
        </mxCell>
        <mxCell id="4P7MWwu41EraKO95r6xE-125" value="rra" style="text;html=1;align=center;verticalAlign=middle;whiteSpace=wrap;rounded=0;" vertex="1" parent="1">
          <mxGeometry x="117" y="286" width="60" height="30" as="geometry" />
        </mxCell>
        <mxCell id="4P7MWwu41EraKO95r6xE-126" value="" style="rounded=0;whiteSpace=wrap;html=1;" vertex="1" parent="1">
          <mxGeometry x="91.5" y="391" width="30" height="90" as="geometry" />
        </mxCell>
        <mxCell id="4P7MWwu41EraKO95r6xE-127" value="Stack A" style="text;html=1;align=center;verticalAlign=middle;whiteSpace=wrap;rounded=0;" vertex="1" parent="1">
          <mxGeometry x="82.5" y="361" width="60" height="30" as="geometry" />
        </mxCell>
        <mxCell id="4P7MWwu41EraKO95r6xE-128" value="Stack B" style="text;html=1;align=center;verticalAlign=middle;whiteSpace=wrap;rounded=0;" vertex="1" parent="1">
          <mxGeometry x="151.5" y="360" width="60" height="30" as="geometry" />
        </mxCell>
        <mxCell id="4P7MWwu41EraKO95r6xE-129" value="&lt;div&gt;&lt;div data-l-s=&quot;68805&quot;&gt;2&lt;/div&gt;&lt;div data-l-s=&quot;68805&quot;&gt;3&lt;/div&gt;&lt;/div&gt;&lt;div&gt;4&lt;/div&gt;&lt;div&gt;5&lt;/div&gt;&lt;div&gt;1&lt;/div&gt;" style="text;html=1;align=center;verticalAlign=middle;whiteSpace=wrap;rounded=0;" vertex="1" parent="1">
          <mxGeometry x="90.5" y="401" width="30" height="76" as="geometry" />
        </mxCell>
        <mxCell id="4P7MWwu41EraKO95r6xE-130" value="" style="rounded=0;whiteSpace=wrap;html=1;" vertex="1" parent="1">
          <mxGeometry x="161.5" y="391" width="30" height="90" as="geometry" />
        </mxCell>
        <mxCell id="4P7MWwu41EraKO95r6xE-131" value="" style="curved=1;endArrow=classic;html=1;rounded=0;" edge="1" parent="1">
          <mxGeometry width="50" height="50" relative="1" as="geometry">
            <mxPoint x="112.5" y="469" as="sourcePoint" />
            <mxPoint x="112.5" y="399" as="targetPoint" />
            <Array as="points">
              <mxPoint x="136.5" y="429" />
            </Array>
          </mxGeometry>
        </mxCell>
        <mxCell id="4P7MWwu41EraKO95r6xE-132" value="rra" style="text;html=1;align=center;verticalAlign=middle;whiteSpace=wrap;rounded=0;" vertex="1" parent="1">
          <mxGeometry x="109.5" y="418" width="60" height="30" as="geometry" />
        </mxCell>
        <mxCell id="4P7MWwu41EraKO95r6xE-133" value="" style="rounded=0;whiteSpace=wrap;html=1;" vertex="1" parent="1">
          <mxGeometry x="249" y="392" width="30" height="90" as="geometry" />
        </mxCell>
        <mxCell id="4P7MWwu41EraKO95r6xE-134" value="Stack A" style="text;html=1;align=center;verticalAlign=middle;whiteSpace=wrap;rounded=0;" vertex="1" parent="1">
          <mxGeometry x="240" y="362" width="60" height="30" as="geometry" />
        </mxCell>
        <mxCell id="4P7MWwu41EraKO95r6xE-135" value="Stack B" style="text;html=1;align=center;verticalAlign=middle;whiteSpace=wrap;rounded=0;" vertex="1" parent="1">
          <mxGeometry x="309" y="361" width="60" height="30" as="geometry" />
        </mxCell>
        <mxCell id="4P7MWwu41EraKO95r6xE-136" value="1&lt;div&gt;2&lt;/div&gt;&lt;div&gt;3&lt;/div&gt;&lt;div&gt;4&lt;/div&gt;&lt;div&gt;5&lt;/div&gt;" style="text;html=1;align=center;verticalAlign=middle;whiteSpace=wrap;rounded=0;" vertex="1" parent="1">
          <mxGeometry x="249" y="400" width="30" height="76" as="geometry" />
        </mxCell>
        <mxCell id="4P7MWwu41EraKO95r6xE-137" value="" style="rounded=0;whiteSpace=wrap;html=1;" vertex="1" parent="1">
          <mxGeometry x="319" y="392" width="30" height="90" as="geometry" />
        </mxCell>
        <mxCell id="4P7MWwu41EraKO95r6xE-140" value="" style="shape=flexArrow;endArrow=classic;html=1;rounded=0;" edge="1" parent="1">
          <mxGeometry width="50" height="50" relative="1" as="geometry">
            <mxPoint x="310" y="114.66" as="sourcePoint" />
            <mxPoint x="347" y="115.16" as="targetPoint" />
          </mxGeometry>
        </mxCell>
        <mxCell id="4P7MWwu41EraKO95r6xE-141" value="" style="shape=flexArrow;endArrow=classic;html=1;rounded=0;" edge="1" parent="1">
          <mxGeometry width="50" height="50" relative="1" as="geometry">
            <mxPoint x="450" y="114.71000000000001" as="sourcePoint" />
            <mxPoint x="487" y="115.21000000000001" as="targetPoint" />
          </mxGeometry>
        </mxCell>
        <mxCell id="4P7MWwu41EraKO95r6xE-142" value="" style="shape=flexArrow;endArrow=classic;html=1;rounded=0;" edge="1" parent="1">
          <mxGeometry width="50" height="50" relative="1" as="geometry">
            <mxPoint x="590" y="114.7" as="sourcePoint" />
            <mxPoint x="627" y="115.2" as="targetPoint" />
          </mxGeometry>
        </mxCell>
      </root>
    </mxGraphModel>
  </diagram>
</mxfile>
